<svg width="32" height="32" viewBox="0 0 32 32" fill="none" xmlns="http://www.w3.org/2000/svg">
<g clip-path="url(#clip0_3484_5386)">
<path d="M29.4041 18.5226L27.4301 9.78477C27.0801 9.74207 26.7448 9.61742 26.4508 9.42072C26.1567 9.22401 25.912 8.96065 25.736 8.65153L25.0952 7.52574C24.9449 7.26505 24.8496 6.97565 24.8153 6.67581L21.869 5.24435L16.7794 2.82131C16.1543 2.62793 15.4809 2.67302 14.8864 2.94805H14.798L6.15816 7.19024C5.79028 7.36139 5.46615 7.61577 5.21074 7.93375C4.95533 8.25174 4.77548 8.62484 4.68504 9.0243L2.5711 18.5226C2.52683 18.7132 2.50458 18.9084 2.50481 19.1042V19.1042C2.49247 19.7342 2.69832 20.3488 3.0867 20.8413L9.08968 28.4608C9.14248 28.5332 9.20165 28.6006 9.26645 28.6621C9.70256 29.1177 10.2851 29.4006 10.909 29.4599C10.9972 29.4673 11.0859 29.4673 11.1741 29.4599H20.801C20.8893 29.4673 20.9779 29.4673 21.0662 29.4599C21.6901 29.4006 22.2726 29.1177 22.7087 28.6621L22.8855 28.4608L28.8885 20.8413C29.2588 20.3652 29.4611 19.7773 29.463 19.1713V19.1265C29.4652 18.9237 29.4455 18.7211 29.4041 18.5226V18.5226Z" fill="#3BD9CD"/>
<path d="M30.1995 6.0309L29.5587 4.90512C29.4994 4.798 29.4127 4.70897 29.3078 4.64733C29.2028 4.58569 29.0834 4.5537 28.9621 4.55471H27.71C27.5905 4.55858 27.4737 4.59183 27.3698 4.65158C27.2658 4.71133 27.1778 4.79579 27.1133 4.89766L26.4725 6.0309C26.4109 6.1358 26.3784 6.25556 26.3784 6.37759C26.3784 6.49961 26.4109 6.61938 26.4725 6.72427L27.1133 7.85005C27.1748 7.95476 27.2621 8.04145 27.3667 8.10159C27.4713 8.16173 27.5896 8.19324 27.71 8.19301H28.9916C29.1123 8.19555 29.2315 8.16502 29.3365 8.10466C29.4415 8.04429 29.5285 7.95632 29.5882 7.85005L30.1995 6.72427C30.2611 6.61938 30.2937 6.49961 30.2937 6.37759C30.2937 6.25556 30.2611 6.1358 30.1995 6.0309Z" fill="#171B49"/>
<path d="M25.5224 4.66544C25.5683 4.57151 25.5754 4.46298 25.5423 4.36371C25.5091 4.26445 25.4384 4.18257 25.3456 4.1361L22.9959 2.98795C22.9017 2.94591 22.7952 2.94178 22.698 2.9764C22.6009 3.01102 22.5204 3.0818 22.473 3.17433C22.4495 3.2211 22.4356 3.2722 22.4322 3.32456C22.4287 3.37691 22.4359 3.42943 22.4531 3.47892C22.4703 3.52841 22.4973 3.57385 22.5323 3.61248C22.5674 3.65111 22.6099 3.68214 22.6571 3.70368L24.9994 4.85183C25.0458 4.87457 25.0962 4.8878 25.1476 4.89073C25.1991 4.89367 25.2506 4.88625 25.2992 4.86893C25.3479 4.8516 25.3926 4.82469 25.4309 4.78977C25.4692 4.75484 25.5003 4.71259 25.5224 4.66544V4.66544Z" fill="#171B49"/>
<path d="M14.5918 22.7815C15.5493 21.9539 15.6966 20.4777 15.7187 19.0015C15.7187 18.6884 15.7187 18.3753 15.7187 18.0547H9.14123C8.44886 18.0994 8.40467 18.256 8.40467 20.8058C8.35664 21.5416 8.57969 22.2694 9.03074 22.8486C9.20544 23.0288 9.42006 23.1643 9.65682 23.2437C9.76174 23.2824 9.87036 23.3099 9.98091 23.3257C12.198 23.7283 13.7079 23.542 14.5918 22.7815Z" fill="white"/>
<path d="M21.8617 15.2242C21.5818 12.3985 21.2356 8.887 20.7347 6.06881C19.9466 1.65514 19.1953 1.46875 19.048 1.46875C17.7296 1.46875 16.5437 8.85717 16.5069 17.2968H22.0974C22.0016 16.6482 21.928 15.9548 21.8617 15.2242Z" fill="#3BD9CD"/>
<path d="M16.7352 24.4532C16.6663 24.3499 16.5728 24.2658 16.4635 24.2084C16.3541 24.1511 16.2323 24.1225 16.1091 24.1252C16.1091 24.1252 15.4536 24.1252 15.4536 24.6098C15.4536 24.7813 15.542 25.1615 16.1091 25.8101C16.6174 25.2286 16.8531 24.7216 16.7352 24.4532Z" fill="white"/>
<path d="M13.1997 6.74275C12.9897 6.64596 12.7567 6.61207 12.5283 6.6451C12.2998 6.67813 12.0855 6.7767 11.9107 6.92914C10.1356 8.0922 7.74913 11.0595 7.58708 12.3046C7.5702 12.3681 7.5702 12.4349 7.58708 12.4984C7.67547 12.5804 8.57408 12.4984 10.4818 11.6336C10.4818 11.6336 10.8648 11.5441 11.0416 11.7305C11.0921 11.7916 11.1256 11.8654 11.1385 11.944C11.1515 12.0227 11.1434 12.1034 11.1152 12.1778C10.7175 13.7435 10.3787 15.8683 10.1651 17.255H15.6966C15.6598 15.9876 15.2989 7.87599 13.1997 6.74275Z" fill="#3BD9CD"/>
<path d="M17.1182 23.3739C16.6601 22.9736 16.3124 22.4598 16.1091 21.8828C15.9058 22.4598 15.5581 22.9736 15.1 23.3739C14.0247 24.2984 12.3085 24.537 9.84834 24.1195C9.94739 24.745 10.207 25.3332 10.6013 25.8251C10.9956 26.3171 11.5106 26.6956 12.0949 26.9227C12.6746 27.1208 13.2933 27.1735 13.8976 27.0761C14.5019 26.9787 15.0738 26.7342 15.5641 26.3636C15.077 25.9024 14.7665 25.2819 14.6876 24.6115C14.7006 24.4292 14.7491 24.2514 14.8303 24.0881C14.9115 23.9249 15.0238 23.7795 15.1607 23.6603C15.2976 23.5411 15.4564 23.4505 15.628 23.3937C15.7996 23.3369 15.9807 23.315 16.1607 23.3292C16.4394 23.3209 16.7147 23.3929 16.9546 23.5368C17.1946 23.6806 17.3892 23.8904 17.516 24.1418C17.7664 24.7457 17.516 25.4913 16.7278 26.3785C17.2184 26.7485 17.7903 26.9926 18.3945 27.09C18.9987 27.1874 19.6172 27.1351 20.197 26.9377C20.7748 26.7059 21.2827 26.3253 21.6703 25.8335C22.0579 25.3418 22.3118 24.7561 22.4067 24.1344V24.1344C19.8877 24.5668 18.1936 24.2984 17.1182 23.3739Z" fill="#3BD9CD"/>
<path d="M23.0549 18.0625H16.4995C16.4995 18.3831 16.4995 18.6962 16.4995 19.0094C16.4995 20.5005 16.6689 21.9916 17.6264 22.7893C18.584 23.587 20.0202 23.7287 22.2373 23.3485C22.338 23.3351 22.4369 23.3101 22.5319 23.2739V23.2739C22.7651 23.1958 22.9752 23.06 23.1433 22.8788C23.1479 22.867 23.1561 22.8571 23.1667 22.8504C23.1773 22.8437 23.1897 22.8406 23.2022 22.8415C23.6312 22.2687 23.8476 21.5614 23.8135 20.8434C23.8135 18.2563 23.7694 18.0998 23.0549 18.0625Z" fill="white"/>
<path d="M19.2248 21.5933C19.4013 21.5947 19.5744 21.5431 19.7219 21.4449C19.8694 21.3466 19.9848 21.2063 20.0534 21.0416C20.122 20.8769 20.1407 20.6953 20.1071 20.5198C20.0736 20.3443 19.9893 20.1828 19.8649 20.0559C19.7406 19.929 19.5818 19.8424 19.4087 19.807C19.2356 19.7715 19.0561 19.789 18.8928 19.857C18.7295 19.9251 18.5899 20.0407 18.4916 20.1892C18.3933 20.3377 18.3409 20.5124 18.3409 20.6911C18.3409 20.9291 18.4338 21.1575 18.5993 21.3264C18.7649 21.4954 18.9897 21.5913 19.2248 21.5933Z" fill="#171B49"/>
<path d="M12.9935 21.5933C13.17 21.5947 13.3431 21.5431 13.4906 21.4449C13.6381 21.3466 13.7535 21.2063 13.8221 21.0416C13.8907 20.8769 13.9094 20.6953 13.8758 20.5198C13.8423 20.3443 13.758 20.1828 13.6336 20.0559C13.5093 19.929 13.3505 19.8424 13.1774 19.807C13.0043 19.7715 12.8248 19.789 12.6615 19.857C12.4982 19.9251 12.3586 20.0407 12.2603 20.1892C12.1621 20.3377 12.1096 20.5124 12.1096 20.6911C12.1096 20.9291 12.2025 21.1575 12.368 21.3264C12.5336 21.4954 12.7584 21.5913 12.9935 21.5933Z" fill="#171B49"/>
<path d="M22.8339 17.2661C22.7676 16.6249 22.694 15.9017 22.6203 15.1338C22.1416 10.3175 21.6775 6.18718 20.9704 3.55538C20.8747 3.19006 20.7716 2.8471 20.6611 2.54888C20.2412 1.32618 19.7109 0.632812 19.048 0.632812C18.8392 0.643942 18.6359 0.704349 18.4543 0.809206C18.2727 0.914063 18.1178 1.06046 18.0021 1.23671C17.8423 1.44139 17.7063 1.66404 17.597 1.90025C16.8671 3.7774 16.4225 5.75571 16.2785 7.76775C16.1459 8.88607 16.0355 10.1162 15.9471 11.4284C15.4315 8.4462 14.636 6.6196 13.5753 6.04552C13.2417 5.87924 12.8687 5.81134 12.4987 5.84958C12.1288 5.88781 11.777 6.03064 11.4835 6.26173C9.48742 7.5739 6.99784 10.735 6.80633 12.2261C6.77651 12.3721 6.77957 12.5229 6.81528 12.6675C6.85098 12.8121 6.91842 12.9466 7.01257 13.0612C7.42504 13.5309 8.48569 13.3967 10.1945 12.6586C9.81887 14.2913 9.52425 16.2223 9.37693 17.2884C7.61655 17.3779 7.61655 18.1235 7.61655 20.8373C7.61655 22.2836 8.08795 23.32 8.97919 23.8195C9.34011 26.4289 10.909 27.3609 11.815 27.6814C12.5351 27.9312 13.3057 27.9938 14.0561 27.8635C14.8064 27.7332 15.5123 27.4143 16.1091 26.9359C16.9172 27.5861 17.9199 27.9384 18.9522 27.9349V27.9349C19.4536 27.9396 19.952 27.8563 20.4254 27.6889C21.3313 27.3683 22.8929 26.4364 23.2611 23.8269C24.1524 23.3125 24.6238 22.2762 24.6238 20.8447C24.6017 18.1086 24.6017 17.3555 22.8339 17.2661ZM18.2967 2.20593C18.3997 1.9674 18.5416 1.74812 18.7165 1.5573C18.8119 1.48568 18.9296 1.45127 19.048 1.46038C19.1217 1.46038 19.3279 1.51256 19.6151 2.05682C19.7909 2.39757 19.9339 2.75458 20.0424 3.12296C20.3353 4.10117 20.5666 5.09725 20.7347 6.10517C21.2356 8.92335 21.5818 12.4349 21.8617 15.2605C21.928 16.0061 22.0016 16.6846 22.0679 17.3034H16.5069C16.5363 10.4741 17.3097 4.37548 18.2967 2.20593ZM11.1226 12.1814C11.1508 12.107 11.1589 12.0263 11.1459 11.9476C11.133 11.869 11.0995 11.7952 11.0489 11.7341C10.8722 11.5477 10.5186 11.6297 10.4891 11.6372C8.58145 12.5244 7.68284 12.584 7.59445 12.502C7.57757 12.4385 7.57757 12.3716 7.59445 12.3082C7.7565 11.0631 10.143 8.09579 11.9181 6.93273C12.0929 6.78029 12.3072 6.68173 12.5356 6.64869C12.7641 6.61566 12.9971 6.64955 13.2071 6.74634C15.3063 7.87958 15.6672 15.9986 15.7114 17.2586H10.1724C10.3639 15.8719 10.7248 13.7471 11.1226 12.1814ZM9.03075 22.8577C8.58664 22.2864 8.36399 21.5705 8.40467 20.8447C8.40467 18.2949 8.44887 18.1384 9.14123 18.0936H15.7187C15.7187 18.4142 15.7187 18.7274 15.7187 19.0405C15.7187 20.5316 15.5493 22.0227 14.5918 22.8204C13.6343 23.6182 12.198 23.7673 9.98092 23.3796C9.87036 23.3638 9.76175 23.3363 9.65683 23.2976C9.41559 23.2053 9.20055 23.0542 9.03075 22.8577V22.8577ZM15.4683 24.6098C15.4683 24.155 16.1165 24.1252 16.1238 24.1252C16.247 24.1225 16.3688 24.1511 16.4782 24.2084C16.5875 24.2657 16.681 24.3499 16.7499 24.4532C16.8678 24.7216 16.6321 25.1988 16.1238 25.8101C15.542 25.1615 15.4683 24.7812 15.4683 24.6098ZM20.1602 26.921C19.5803 27.1184 18.9618 27.1707 18.3577 27.0733C17.7535 26.976 17.1816 26.7318 16.691 26.3618C17.4644 25.4895 17.7295 24.744 17.4791 24.1252C17.3524 23.8738 17.1577 23.6639 16.9178 23.5201C16.6779 23.3762 16.4026 23.3042 16.1238 23.3125C15.9438 23.2983 15.7628 23.3202 15.5912 23.377C15.4196 23.4339 15.2608 23.5245 15.1238 23.6436C14.9869 23.7628 14.8747 23.9082 14.7935 24.0714C14.7123 24.2347 14.6638 24.4126 14.6507 24.5949C14.7302 25.2725 15.0463 25.8992 15.542 26.3618C15.0516 26.7324 14.4798 26.9769 13.8755 27.0743C13.2712 27.1717 12.6525 27.1191 12.0728 26.921C11.4885 26.6939 10.9735 26.3154 10.5792 25.8234C10.1849 25.3314 9.92528 24.7432 9.82624 24.1177V24.1177C12.2864 24.5427 14.0025 24.3041 15.0779 23.3722C15.536 22.9718 15.8837 22.4581 16.087 21.881C16.2903 22.4581 16.638 22.9718 17.0961 23.3722C18.1715 24.2966 19.8877 24.5352 22.3478 24.1177C22.2535 24.7386 22.0007 25.3238 21.6145 25.8154C21.2282 26.3071 20.7219 26.6882 20.1455 26.921H20.1602ZM23.2538 22.7981C23.2413 22.7972 23.2289 22.8003 23.2183 22.807C23.2077 22.8137 23.1995 22.8236 23.1948 22.8354V22.8354C23.0268 23.0166 22.8166 23.1524 22.5835 23.2305C22.4884 23.2667 22.3896 23.2917 22.2889 23.3051C20.0792 23.6853 18.5619 23.5064 17.678 22.7459C16.7941 21.9854 16.5731 20.4421 16.551 18.9659C16.551 18.6528 16.551 18.3397 16.551 18.0191H23.1065C23.843 18.0564 23.843 18.2129 23.843 20.7702C23.8862 21.4973 23.6721 22.2163 23.239 22.7981H23.2538Z" fill="#171B49"/>
<path d="M31.9157 18.5654L29.9491 9.95427C29.9242 9.85202 29.8608 9.76369 29.7723 9.70824C29.727 9.67875 29.6759 9.65949 29.6225 9.65177C29.5691 9.64405 29.5147 9.64805 29.463 9.66351C29.3596 9.68765 29.2697 9.7519 29.2126 9.84244C29.1855 9.88647 29.1676 9.93564 29.16 9.98693C29.1524 10.0382 29.1552 10.0905 29.1684 10.1407L31.135 18.7443C31.2302 19.1613 31.2307 19.5947 31.1362 20.0119C31.0418 20.4291 30.855 20.8191 30.5899 21.1525L23.7178 29.8829C23.4544 30.2202 23.1185 30.4922 22.7356 30.6783C22.3527 30.8643 21.9329 30.9595 21.5081 30.9565H10.4597C10.035 30.9589 9.6154 30.8635 9.23257 30.6775C8.84973 30.4915 8.51372 30.2198 8.25 29.8829L1.39997 21.145C1.13488 20.8116 0.948077 20.4216 0.853656 20.0044C0.759236 19.5873 0.759666 19.1538 0.854914 18.7369L3.31503 7.84436C3.41073 7.43158 3.59674 7.0458 3.85934 6.71547C4.12195 6.38514 4.45446 6.11868 4.83235 5.93575L14.7833 1.08966C15.0853 0.964789 15.3986 0.869907 15.7187 0.806349C15.9098 0.787404 16.1022 0.787404 16.2933 0.806349C16.3975 0.806367 16.4975 0.764976 16.5719 0.691079C16.6463 0.617182 16.6891 0.516685 16.691 0.411207C16.6912 0.310171 16.6531 0.212911 16.5846 0.139418C16.5161 0.0659252 16.4224 0.0217828 16.3227 0.0160639V0.0160639C15.783 -0.0357603 15.2388 0.0382001 14.7317 0.232274V0.232274L14.5034 0.329196L9.87043 2.56585L4.49353 5.1902C4.0065 5.42642 3.57858 5.77112 3.24183 6.19849C2.90508 6.62585 2.66822 7.12481 2.54901 7.65797L0.0888896 18.5654C-0.0300653 19.0984 -0.0296229 19.6516 0.0901843 20.1844C0.209992 20.7172 0.446124 21.2161 0.781258 21.6445L7.66811 30.3824C8.00423 30.8114 8.43203 31.1577 8.91936 31.3953C9.40668 31.6329 9.94087 31.7556 10.4818 31.7542H21.5302C22.065 31.7505 22.5921 31.6254 23.0727 31.3879C23.5533 31.1505 23.9752 30.8069 24.3071 30.3824L31.1939 21.6445C31.5355 21.2194 31.7779 20.7217 31.9029 20.1886C32.0279 19.6554 32.0323 19.1005 31.9157 18.5654V18.5654Z" fill="#171B49"/>
</g>
<defs>
<clipPath id="clip0_3484_5386">
<rect width="32" height="32" fill="white"/>
</clipPath>
</defs>
</svg>
